<svg width="32" height="32" viewBox="0 0 32 32" xmlns="http://www.w3.org/2000/svg"><path d="M17.589 4.489a.49.49 0 0 1-.289.56l-.084.026-2.794.623.005.022v.038c0 .153.022.205.175.221l.167.006h11.138a2.083 2.083 0 0 1 2.087 1.923l.006.149v3.64c0 .524-.2 1.026-.557 1.407l-.124.122-1.032.933c-.355.323-.457.839-.278 1.224.234.377.503.731.819 1.074l.246.255.437.516c.276.326.443.728.48 1.15l.009.181v2.395c0 .516-.195 1.011-.54 1.39l-.122.121-5.365 4.976a2.107 2.107 0 0 1-2.274.382l-.15-.073-14.453-7.752a2.07 2.07 0 0 1-1.09-1.66L4 18.176V8.669a2.076 2.076 0 0 1 1.347-1.931l.157-.054L17 4.117c.266-.06.53.107.589.372zm-4.141 1.426l-7.69 1.717c-.42.13-.718.494-.765.92l-.007.118v9.505c0 .356.176.686.464.888l.113.07 14.453 7.752c.382.205.844.169 1.187-.082l.099-.081 5.364-4.976c.19-.175.31-.412.34-.665l.008-.128V18.56c0-.213-.063-.42-.18-.596l-.077-.102-.407-.484a7.9 7.9 0 0 1-1.207-1.527 2.067 2.067 0 0 1 .359-2.298l.121-.12 1.033-.933c.195-.177.318-.416.35-.673l.008-.13V8.058a1.097 1.097 0 0 0-.985-1.085l-.12-.006h-11.14c-.722 0-1.197-.337-1.305-.936l-.016-.116zm7.094 8.643c2.11 0 3.816 1.728 3.816 3.854 0 1.396-1.152 3.291-3.44 5.766a.517.517 0 0 1-.752 0c-2.288-2.475-3.44-4.37-3.44-5.766 0-2.126 1.706-3.854 3.816-3.854zm0 .982c-1.561 0-2.829 1.284-2.829 2.872 0 .988.895 2.536 2.706 4.58l.123.136.345-.39c.217-.25.42-.492.607-.726l.358-.459c.96-1.27 1.462-2.282 1.515-3.014l.004-.127c0-1.588-1.268-2.872-2.829-2.872zm0 .952c1.033 0 1.87.833 1.87 1.861a1.866 1.866 0 0 1-1.87 1.862 1.866 1.866 0 0 1-1.87-1.862c0-1.028.838-1.861 1.87-1.861zm0 .982a.881.881 0 0 0-.883.88c0 .485.395.878.883.878a.881.881 0 0 0 .883-.879.881.881 0 0 0-.883-.88zm-10-8.916c2.11 0 3.816 1.728 3.816 3.854 0 1.396-1.152 3.291-3.44 5.766a.517.517 0 0 1-.752 0c-2.288-2.475-3.44-4.37-3.44-5.766 0-2.126 1.706-3.854 3.816-3.854zm0 .982c-1.561 0-2.829 1.284-2.829 2.872 0 .988.895 2.536 2.706 4.58l.123.136.345-.39c.217-.25.42-.492.607-.726l.358-.459c.96-1.27 1.462-2.282 1.515-3.014l.004-.127c0-1.588-1.268-2.872-2.829-2.872zm0 .952c1.033 0 1.87.833 1.87 1.861a1.866 1.866 0 0 1-1.87 1.862 1.866 1.866 0 0 1-1.87-1.862c0-1.028.838-1.861 1.87-1.861zm0 .982a.881.881 0 0 0-.883.88c0 .485.395.878.883.878a.881.881 0 0 0 .883-.879.881.881 0 0 0-.883-.88z" fill="#949494" fill-rule="nonzero"/></svg>